<svg width="254" height="254" viewBox="0 0 254 254" fill="none" xmlns="http://www.w3.org/2000/svg">
<g clip-path="url(#clip0_110_50)">
<path d="M127 1C196.588 1 253 57.4121 253 127C253 196.588 196.588 253 127 253C57.4121 253 1 196.588 1 127C1 57.4121 57.4121 1 127 1Z" fill="url(#paint0_linear_110_50)" stroke="black" stroke-width="2"/>
<path d="M151 147.583H191.262C195.228 147.583 197.254 152.342 194.507 155.202L184.045 166.09C182.072 168.143 182.001 171.347 183.838 173.484L184.021 173.688L199.37 189.857C200.967 191.539 201.016 194.147 199.52 195.887L199.37 196.053L192.806 202.969C191.031 204.838 188.052 204.838 186.277 202.969L171.649 187.558C169.472 185.264 165.812 185.275 163.648 187.582L154.282 197.571C151.492 200.546 146.5 198.571 146.5 194.493V152.083C146.5 149.676 148.391 147.71 150.769 147.589L151 147.583Z" fill="white" stroke="black"/>
<path d="M61.4355 51.1885C63.2174 49.3113 66.2121 49.3201 67.9824 51.208L82.1289 66.2959C84.2836 68.5939 87.9248 68.6162 90.1074 66.3447L99.7549 56.3027C102.563 53.3808 107.5 55.3685 107.5 59.4209V102.05C107.5 104.535 105.485 106.55 103 106.55H62.543C58.6035 106.549 56.5659 101.845 59.2607 98.9717L69.7959 87.7373C71.7799 85.6217 71.7807 82.3287 69.7969 80.2129L54.8545 64.2773C53.2245 62.5386 53.2332 59.8302 54.874 58.1016L61.4355 51.1885Z" fill="white" stroke="black"/>
<path d="M62.6396 147.583H103C105.485 147.584 107.5 149.598 107.5 152.083V194.603C107.5 198.669 102.536 200.65 99.7363 197.702L90.1084 187.558C87.9307 185.264 84.2712 185.275 82.1074 187.582L67.7188 202.926C65.9484 204.814 62.9546 204.822 61.1729 202.946L54.6104 196.033C53.0206 194.358 52.9631 191.763 54.4434 190.022L54.5918 189.856L69.7764 173.663C71.7692 171.538 71.7595 168.228 69.7539 166.115L59.376 155.181C56.7399 152.404 58.5649 147.877 62.2754 147.597L62.6396 147.583Z" fill="white" stroke="black"/>
<path d="M186.014 51.165C187.788 49.2957 190.767 49.2957 192.541 51.165L199.105 58.0801C200.754 59.8166 200.754 62.5399 199.105 64.2764L184.002 80.1885C181.987 82.3108 181.987 85.6394 184.002 87.7617L194.624 98.9521C197.345 101.819 195.313 106.549 191.36 106.55H151C148.515 106.55 146.5 104.535 146.5 102.05V59.5303L146.515 59.1553C146.809 55.3454 151.552 53.5759 154.264 56.4326L163.649 66.3203C165.818 68.605 169.459 68.605 171.628 66.3203L186.014 51.165Z" fill="white" stroke="black"/>
</g>
<defs>
<linearGradient id="paint0_linear_110_50" x1="-71.2323" y1="2" x2="-71.2323" y2="252" gradientUnits="userSpaceOnUse">
<stop offset="0.005" stop-color="#1A1F71" stop-opacity="0.97"/>
<stop offset="0.519231" stop-color="#20B2AA" stop-opacity="0.97"/>
<stop offset="1" stop-color="#1A1F71" stop-opacity="0.97"/>
</linearGradient>
<clipPath id="clip0_110_50">
<rect width="254" height="254" fill="white"/>
</clipPath>
</defs>
</svg>
