<svg width="254" height="254" viewBox="0 0 254 254" fill="none" xmlns="http://www.w3.org/2000/svg">
<g clip-path="url(#clip0_110_156)">
<path d="M127 1C196.588 1 253 57.4121 253 127C253 196.588 196.588 253 127 253C57.4121 253 1 196.588 1 127C1 57.4121 57.4121 1 127 1Z" fill="url(#paint0_linear_110_156)" stroke="black" stroke-width="2"/>
<path d="M142.025 142.288C144.909 139.405 149.664 139.314 152.665 142.018L152.95 142.288L187.111 176.449V157.267C187.111 152.754 190.618 149.043 194.806 149.043C198.993 149.043 202.5 152.754 202.5 157.267V195.069C202.5 199.266 199.044 202.763 194.277 202.763H156.74C152.227 202.763 148.517 199.256 148.517 195.069C148.517 190.881 152.227 187.374 156.74 187.374H176.187L142.025 153.213C139.049 150.236 139.049 145.265 142.025 142.288Z" fill="white" stroke="black"/>
<path d="M101.064 142.275C104.031 139.061 108.99 139.039 112.239 142.288C115.123 145.172 115.213 149.927 112.51 152.928L112.239 153.213L78.0781 187.374H97.2607C101.774 187.374 105.484 190.881 105.484 195.069C105.484 199.256 101.774 202.763 97.2607 202.763H59.7236C55.2107 202.763 51.5 199.257 51.5 195.069V157.267C51.5002 152.754 55.0068 149.044 59.1943 149.043C63.3821 149.043 66.8895 152.754 66.8896 157.267V176.45L101.064 142.275Z" fill="white" stroke="black"/>
<path d="M156.737 51.5H194.011C198.523 51.5002 202.233 55.0068 202.233 59.1943V96.9961C202.233 101.509 198.727 105.22 194.539 105.22C190.351 105.22 186.845 101.509 186.845 96.9961V77.8135L152.684 111.975L152.676 111.981L152.669 111.989C149.695 115.211 144.747 115.211 141.772 111.989L141.766 111.981L141.759 111.975L141.488 111.689C138.872 108.785 138.872 104.239 141.488 101.335L141.759 101.051L175.92 66.8896H156.737C152.224 66.8895 148.514 63.3821 148.514 59.1943C148.514 55.0067 152.225 51.5001 156.737 51.5Z" fill="white" stroke="black"/>
<path d="M59.7236 51.7643H97.2607C101.773 51.7644 105.484 55.271 105.484 59.4586C105.484 63.6464 101.774 67.1538 97.2607 67.1539H78.085L78.9297 68.0055L111.974 101.313L111.975 101.315C114.951 104.292 114.951 109.262 111.975 112.239C108.998 115.216 104.028 115.216 101.051 112.239L66.8896 78.0778V97.2604C66.8896 101.773 63.3822 105.484 59.1943 105.484C55.0067 105.484 51.5 101.773 51.5 97.2604V59.4586C51.5002 55.271 55.2108 51.7643 59.7236 51.7643Z" fill="white" stroke="black"/>
</g>
<defs>
<linearGradient id="paint0_linear_110_156" x1="-71.2323" y1="2" x2="-71.2323" y2="252" gradientUnits="userSpaceOnUse">
<stop offset="0.005" stop-color="#1A1F71" stop-opacity="0.97"/>
<stop offset="0.519231" stop-color="#20B2AA" stop-opacity="0.97"/>
<stop offset="1" stop-color="#1A1F71" stop-opacity="0.97"/>
</linearGradient>
<clipPath id="clip0_110_156">
<rect width="254" height="254" fill="white"/>
</clipPath>
</defs>
</svg>
