<svg width="254" height="254" viewBox="0 0 254 254" fill="none" xmlns="http://www.w3.org/2000/svg">
<g clip-path="url(#clip0_110_304)">
<path d="M127 1C196.588 1 253 57.4121 253 127C253 196.588 196.588 253 127 253C57.4121 253 1 196.588 1 127C1 57.4121 57.4121 1 127 1Z" fill="url(#paint0_linear_110_304)" stroke="black" stroke-width="2"/>
<path d="M123.893 117.359L93.2139 147.262C104.088 146.485 115.35 146.097 127 146.097C132.826 146.097 138.457 146.291 144.088 146.485L152.243 138.524L130.69 117.553C128.942 115.417 125.835 115.417 123.893 117.359Z" fill="white"/>
<path d="M60.5928 154.835V169.204C79.4277 162.602 102.923 158.913 127.001 158.913C128.36 158.913 129.913 158.913 131.272 158.913L140.204 150.175C135.738 149.981 131.272 149.981 126.806 149.981C102.535 149.981 79.0394 151.728 60.5928 154.835Z" fill="white"/>
<path d="M193.407 169.204V144.544L174.766 126.291C174.184 125.709 173.407 125.515 172.63 125.515C171.854 125.515 171.077 125.903 170.495 126.485L136.902 159.301C157.291 159.884 177.097 163.573 193.407 169.204Z" fill="white"/>
<path d="M173.603 115.806C178.457 114.835 181.952 111.146 181.175 107.457C180.399 103.767 175.933 101.631 170.884 102.602C166.03 103.573 162.535 107.262 163.311 110.952C164.088 114.641 168.748 116.777 173.603 115.806Z" fill="white"/>
<path d="M73.4082 104.932C72.2431 103.767 70.3014 103.767 69.1363 104.932L66.6121 107.456C65.447 108.621 65.447 110.563 66.6121 111.728L83.3111 128.427C84.4762 129.592 87.0004 131.534 87.5829 131.728C88.1655 131.922 89.3305 131.922 90.1072 131.728C90.6898 131.534 93.214 129.592 94.3791 128.427L149.136 73.6699C150.301 72.5049 150.301 70.5631 149.136 69.398L146.612 66.8738C145.447 65.7087 143.505 65.7087 142.34 66.8738L88.9422 120.272L73.4082 104.932Z" fill="white"/>
<path d="M204.67 79.301C203.311 78.3301 201.563 78.3301 200.01 79.1068C183.117 87.2621 160.01 92.1165 135.35 93.0874L125.447 102.99C126.029 102.99 126.417 102.99 127 102.99C152.825 102.99 178.068 98.7184 197.291 90.9515V174.835C178.068 167.068 152.825 162.796 127 162.796C101.175 162.796 75.932 167.068 56.7087 174.835V90.9515C69.7184 96.1942 85.4466 99.8835 102.146 101.631L111.078 92.699C89.3301 91.1456 68.9417 86.2912 53.9903 79.1068C52.4369 78.3301 50.6893 78.5243 49.3301 79.301C47.9709 80.2718 47 81.8253 47 83.3787V182.214C47 183.961 47.7767 185.515 49.3301 186.291C50.1068 186.874 51.0777 187.068 51.8544 187.068C52.6311 187.068 53.2136 186.874 53.9903 186.68C72.6311 177.748 99.233 172.505 127 172.505C154.767 172.505 181.369 177.748 200.01 186.68C201.563 187.456 203.311 187.262 204.67 186.485C206.029 185.709 207 183.961 207 182.408V83.5728C207 81.8253 206.029 80.2718 204.67 79.301Z" fill="white"/>
</g>
<defs>
<linearGradient id="paint0_linear_110_304" x1="-71.2323" y1="2" x2="-71.2323" y2="252" gradientUnits="userSpaceOnUse">
<stop offset="0.005" stop-color="#1A1F71" stop-opacity="0.97"/>
<stop offset="0.519231" stop-color="#20B2AA" stop-opacity="0.97"/>
<stop offset="1" stop-color="#1A1F71" stop-opacity="0.97"/>
</linearGradient>
<clipPath id="clip0_110_304">
<rect width="254" height="254" fill="white"/>
</clipPath>
</defs>
</svg>
