<svg width="254" height="254" viewBox="0 0 254 254" fill="none" xmlns="http://www.w3.org/2000/svg">
<g clip-path="url(#clip0_110_288)">
<path d="M127 1C196.588 1 253 57.4121 253 127C253 196.588 196.588 253 127 253C57.4121 253 1 196.588 1 127C1 57.4121 57.4121 1 127 1Z" fill="url(#paint0_linear_110_288)" stroke="black" stroke-width="2"/>
<path d="M90.2012 142.645C102.013 141.801 114.247 141.379 126.903 141.379C133.231 141.379 139.347 141.59 145.464 141.801L154.323 133.153L130.91 110.373C128.801 108.263 125.426 108.263 123.317 110.373L90.2012 142.645Z" fill="white"/>
<path d="M126.903 145.598C100.326 145.598 74.8038 147.496 54.7656 150.871V166.479C75.2257 159.308 100.748 155.3 126.903 155.3C128.38 155.3 130.067 155.3 131.544 155.3L141.246 145.808C136.606 145.598 131.754 145.598 126.903 145.598Z" fill="white"/>
<path d="M176.26 118.81C175.416 118.81 174.573 119.231 173.94 119.864L137.449 155.511C159.808 156.355 181.322 160.362 199.04 166.479V139.691L178.791 119.864C178.158 119.231 177.315 118.81 176.26 118.81Z" fill="white"/>
<path d="M211.274 68.8196C209.797 67.7649 207.899 67.7649 206.212 68.6086C185.962 78.3113 157.065 84.0064 126.902 84.0064C96.7397 84.0064 67.8425 78.3113 47.5934 68.6086C45.906 67.7649 44.0076 67.9758 42.5311 68.8196C41.0546 69.8742 40 71.5616 40 73.2491V180.612C40 182.51 40.8437 184.197 42.5311 185.041C43.3748 185.674 44.4295 185.885 45.2732 185.885C46.1169 185.885 46.7497 185.674 47.5934 185.463C67.8425 175.76 96.7397 170.065 126.902 170.065C157.065 170.065 185.962 175.76 206.212 185.463C207.899 186.307 209.797 186.096 211.274 185.252C212.75 184.408 213.805 182.51 213.805 180.822V73.46C213.805 71.5616 212.75 69.8742 211.274 68.8196ZM203.258 172.596C182.377 164.159 154.956 159.519 126.902 159.519C98.849 159.519 71.4283 164.159 50.5464 172.596V81.4753C71.4283 89.9124 98.849 94.5528 126.902 94.5528C154.956 94.5528 182.377 89.9124 203.258 81.4753V172.596Z" fill="white"/>
<path d="M177.526 108.474C182.799 107.419 186.596 103.412 185.752 99.4042C184.909 95.3966 180.057 93.0763 174.573 94.131C169.3 95.1856 165.503 99.1932 166.347 103.201C167.191 107.209 172.253 109.529 177.526 108.474Z" fill="white"/>
</g>
<defs>
<linearGradient id="paint0_linear_110_288" x1="-71.2323" y1="2" x2="-71.2323" y2="252" gradientUnits="userSpaceOnUse">
<stop offset="0.005" stop-color="#1A1F71" stop-opacity="0.97"/>
<stop offset="0.519231" stop-color="#20B2AA" stop-opacity="0.97"/>
<stop offset="1" stop-color="#1A1F71" stop-opacity="0.97"/>
</linearGradient>
<clipPath id="clip0_110_288">
<rect width="254" height="254" fill="white"/>
</clipPath>
</defs>
</svg>
