<svg width="254" height="254" viewBox="0 0 254 254" fill="none" xmlns="http://www.w3.org/2000/svg">
<g clip-path="url(#clip0_110_312)">
<path d="M127 1C196.588 1 253 57.4121 253 127C253 196.588 196.588 253 127 253C57.4121 253 1 196.588 1 127C1 57.4121 57.4121 1 127 1Z" fill="url(#paint0_linear_110_312)" stroke="black" stroke-width="2"/>
<path d="M124.475 119.729L99.5479 144.025C108.383 143.394 117.533 143.079 126.999 143.079C131.732 143.079 136.308 143.237 140.883 143.394L147.509 136.926L129.997 119.887C128.577 118.152 126.053 118.152 124.475 119.729Z" fill="white"/>
<path d="M73.0439 150.178V161.853C88.3473 156.489 107.437 153.492 127 153.492C128.105 153.492 129.367 153.492 130.471 153.492L137.728 146.392C134.1 146.234 130.471 146.234 126.842 146.234C107.122 146.234 88.0318 147.654 73.0439 150.178Z" fill="white"/>
<path d="M180.956 161.853V141.817L165.81 126.987C165.337 126.513 164.706 126.356 164.075 126.356C163.444 126.356 162.813 126.671 162.34 127.144L135.046 153.807C151.611 154.28 167.704 157.278 180.956 161.853Z" fill="white"/>
<path d="M164.865 118.467C168.809 117.678 171.649 114.681 171.018 111.683C170.386 108.686 166.758 106.95 162.656 107.739C158.712 108.528 155.872 111.526 156.503 114.523C157.134 117.521 160.92 119.256 164.865 118.467Z" fill="white"/>
<path d="M83.4574 109.632C82.5108 108.686 80.9331 108.686 79.9865 109.632L77.9355 111.683C76.9889 112.63 76.9889 114.208 77.9355 115.154L91.5035 128.722C92.4501 129.669 94.5011 131.246 94.9744 131.404C95.4477 131.562 96.3943 131.562 97.0254 131.404C97.4987 131.246 99.5496 129.669 100.496 128.722L144.987 84.2318C145.933 83.2852 145.933 81.7075 144.987 80.7609L142.936 78.71C141.989 77.7633 140.411 77.7633 139.465 78.71L96.0787 122.096L83.4574 109.632Z" fill="white"/>
<path d="M190.107 88.807C189.002 88.0181 187.583 88.0181 186.32 88.6492C172.595 95.2754 153.82 99.2196 133.784 100.008L125.738 108.055C126.211 108.055 126.527 108.055 127 108.055C147.983 108.055 168.493 104.584 184.112 98.273V166.428C168.493 160.118 147.983 156.647 127 156.647C106.017 156.647 85.5073 160.118 69.8883 166.428V98.273C80.4587 102.533 93.2379 105.53 106.806 106.95L114.063 99.6929C96.3932 98.4307 79.8277 94.4866 67.6796 88.6492C66.4175 88.0181 64.9976 88.1759 63.8932 88.807C62.7888 89.5958 62 90.8579 62 92.1201V172.423C62 173.843 62.6311 175.106 63.8932 175.737C64.5243 176.21 65.3131 176.368 65.9442 176.368C66.5752 176.368 67.0485 176.21 67.6796 176.052C82.8252 168.795 104.439 164.535 127 164.535C149.561 164.535 171.175 168.795 186.32 176.052C187.583 176.683 189.002 176.525 190.107 175.894C191.211 175.263 192 173.843 192 172.581V92.2779C192 90.858 191.211 89.5958 190.107 88.807Z" fill="white"/>
</g>
<defs>
<linearGradient id="paint0_linear_110_312" x1="-71.2323" y1="2" x2="-71.2323" y2="252" gradientUnits="userSpaceOnUse">
<stop offset="0.005" stop-color="#1A1F71" stop-opacity="0.97"/>
<stop offset="0.519231" stop-color="#20B2AA" stop-opacity="0.97"/>
<stop offset="1" stop-color="#1A1F71" stop-opacity="0.97"/>
</linearGradient>
<clipPath id="clip0_110_312">
<rect width="254" height="254" fill="white"/>
</clipPath>
</defs>
</svg>
