<svg width="254" height="254" viewBox="0 0 254 254" fill="none" xmlns="http://www.w3.org/2000/svg">
<g clip-path="url(#clip0_110_296)">
<path d="M127 1C196.588 1 253 57.4121 253 127C253 196.588 196.588 253 127 253C57.4121 253 1 196.588 1 127C1 57.4121 57.4121 1 127 1Z" fill="url(#paint0_linear_110_296)" stroke="black" stroke-width="2"/>
<path d="M98.8643 138.3C107.773 137.663 117.001 137.345 126.546 137.345C131.319 137.345 135.932 137.504 140.546 137.663L147.228 131.141L129.569 113.959C127.978 112.368 125.432 112.368 123.841 113.959L98.8643 138.3Z" fill="white"/>
<path d="M126.545 140.527C106.5 140.527 87.2503 141.959 72.1367 144.504V156.277C87.5684 150.868 106.818 147.845 126.545 147.845C127.659 147.845 128.932 147.845 130.045 147.845L137.364 140.686C133.864 140.527 130.205 140.527 126.545 140.527Z" fill="white"/>
<path d="M163.773 120.323C163.136 120.323 162.5 120.641 162.023 121.118L134.5 148.004C151.364 148.641 167.591 151.663 180.954 156.277V136.072L165.682 121.118C165.204 120.641 164.568 120.323 163.773 120.323Z" fill="white"/>
<path d="M190.181 82.6181C189.067 81.8227 187.636 81.8227 186.363 82.459C171.09 89.7772 149.295 94.0726 126.545 94.0726C103.795 94.0726 81.9999 89.7772 66.7272 82.459C65.4545 81.8227 64.0227 81.9818 62.9091 82.6181C61.7954 83.4136 61 84.6863 61 85.959V166.936C61 168.368 61.6364 169.64 62.9091 170.277C63.5454 170.754 64.3409 170.913 64.9772 170.913C65.6136 170.913 66.0909 170.754 66.7272 170.595C81.9999 163.277 103.795 158.981 126.545 158.981C149.295 158.981 171.09 163.277 186.363 170.595C187.636 171.231 189.067 171.072 190.181 170.436C191.295 169.799 192.09 168.368 192.09 167.095V86.1181C192.09 84.6863 191.295 83.4136 190.181 82.6181ZM184.136 160.89C168.386 154.527 147.704 151.027 126.545 151.027C105.386 151.027 84.7044 154.527 68.9545 160.89V92.1635C84.7044 98.5271 105.386 102.027 126.545 102.027C147.704 102.027 168.386 98.5271 184.136 92.1635V160.89Z" fill="white"/>
<path d="M164.726 112.527C168.704 111.732 171.567 108.709 170.931 105.686C170.295 102.663 166.636 100.913 162.499 101.709C158.522 102.504 155.658 105.527 156.295 108.55C156.931 111.572 160.749 113.322 164.726 112.527Z" fill="white"/>
</g>
<defs>
<linearGradient id="paint0_linear_110_296" x1="-71.2323" y1="2" x2="-71.2323" y2="252" gradientUnits="userSpaceOnUse">
<stop offset="0.005" stop-color="#1A1F71" stop-opacity="0.97"/>
<stop offset="0.519231" stop-color="#20B2AA" stop-opacity="0.97"/>
<stop offset="1" stop-color="#1A1F71" stop-opacity="0.97"/>
</linearGradient>
<clipPath id="clip0_110_296">
<rect width="254" height="254" fill="white"/>
</clipPath>
</defs>
</svg>
