<svg width="254" height="254" viewBox="0 0 254 254" fill="none" xmlns="http://www.w3.org/2000/svg">
<g clip-path="url(#clip0_110_346)">
<path d="M127 1C196.588 1 253 57.4121 253 127C253 196.588 196.588 253 127 253C57.4121 253 1 196.588 1 127C1 57.4121 57.4121 1 127 1Z" fill="url(#paint0_linear_110_346)" stroke="black" stroke-width="2"/>
<path d="M207 127C207 82.7846 171.028 47 127 47C82.7846 47 47 82.9719 47 127C47 170.841 82.4099 206.438 126.063 207C126.251 207 126.625 207 126.813 207H127C171.215 207 207 171.028 207 127ZM56.555 131.684H79.0375C79.4122 142.925 81.0984 153.604 83.9087 162.972H66.2974C60.6768 153.604 57.3045 143.112 56.555 131.684ZM197.445 122.316H174.588C174.213 111.075 172.527 100.583 169.717 91.0281H187.703C193.323 100.396 196.696 110.888 197.445 122.316ZM165.22 122.316H131.684V91.0281H159.787C162.785 100.396 164.845 111.075 165.22 122.316ZM131.684 81.6604V56.9298C141.426 59.178 150.045 68.5457 156.04 81.6604H131.684ZM122.316 56.9298V81.6604H97.5855C103.768 68.3583 112.574 58.9907 122.316 56.9298ZM122.316 91.0281V122.316H88.4052C88.7799 111.075 90.8407 100.396 93.8384 91.0281H122.316ZM79.0375 122.316H56.555C57.3045 110.888 60.6768 100.396 66.2974 91.0281H83.9087C81.0984 100.396 79.4122 111.075 79.0375 122.316ZM88.4052 131.684H122.316V162.972H93.8384C90.8407 153.604 88.7799 142.925 88.4052 131.684ZM122.316 172.34V197.07C112.574 194.822 103.768 185.642 97.5855 172.34H122.316ZM131.684 197.07V172.34H156.04C149.857 185.454 141.239 194.635 131.684 197.07ZM131.684 162.972V131.684H165.22C164.845 142.925 162.785 153.604 159.787 162.972H131.684ZM174.588 131.684H197.445C196.696 143.112 193.323 153.792 187.703 162.972H169.717C172.527 153.417 174.213 142.925 174.588 131.684ZM181.145 81.6604H166.532C163.534 74.1663 159.787 67.6089 155.29 62.1757C165.407 66.6721 174.213 73.4169 181.145 81.6604ZM98.1475 62.5504C93.8384 67.7963 90.0913 74.3536 87.0937 81.6604H72.8548C79.5995 73.4169 88.2178 66.8595 98.1475 62.5504ZM72.8548 172.34H87.0937C90.0913 179.646 93.8384 186.204 98.1475 191.45C88.2178 186.953 79.5995 180.396 72.8548 172.34ZM155.29 191.637C159.6 186.391 163.347 179.834 166.532 172.34H181.145C174.213 180.583 165.407 187.328 155.29 191.637Z" fill="white"/>
</g>
<defs>
<linearGradient id="paint0_linear_110_346" x1="-71.2323" y1="2" x2="-71.2323" y2="252" gradientUnits="userSpaceOnUse">
<stop offset="0.005" stop-color="#1A1F71" stop-opacity="0.97"/>
<stop offset="0.519231" stop-color="#20B2AA" stop-opacity="0.97"/>
<stop offset="1" stop-color="#1A1F71" stop-opacity="0.97"/>
</linearGradient>
<clipPath id="clip0_110_346">
<rect width="254" height="254" fill="white"/>
</clipPath>
</defs>
</svg>
