<svg width="254" height="254" viewBox="0 0 254 254" fill="none" xmlns="http://www.w3.org/2000/svg">
<g clip-path="url(#clip0_110_357)">
<path d="M127 1C196.588 1 253 57.4121 253 127C253 196.588 196.588 253 127 253C57.4121 253 1 196.588 1 127C1 57.4121 57.4121 1 127 1Z" fill="url(#paint0_linear_110_357)" stroke="black" stroke-width="2"/>
<path d="M197 127C197 88.3115 165.525 57 127 57C88.3115 57 57 88.4754 57 127C57 165.361 87.9836 196.508 126.18 197C126.344 197 126.672 197 126.836 197H127C165.689 197 197 165.525 197 127ZM65.3607 131.098H85.0328C85.3607 140.934 86.8361 150.279 89.2951 158.475H73.8852C68.9672 150.279 66.0164 141.098 65.3607 131.098ZM188.639 122.902H168.639C168.311 113.066 166.836 103.885 164.377 95.5246H180.115C185.033 103.721 187.984 112.902 188.639 122.902ZM160.443 122.902H131.098V95.5246H155.689C158.311 103.721 160.115 113.066 160.443 122.902ZM131.098 87.3279V65.6886C139.623 67.6558 147.164 75.8525 152.41 87.3279H131.098ZM122.902 65.6886V87.3279H101.262C106.672 75.6885 114.377 67.4918 122.902 65.6886ZM122.902 95.5246V122.902H93.2295C93.5574 113.066 95.3607 103.721 97.9836 95.5246H122.902ZM85.0328 122.902H65.3607C66.0164 112.902 68.9672 103.721 73.8852 95.5246H89.2951C86.8361 103.721 85.3607 113.066 85.0328 122.902ZM93.2295 131.098H122.902V158.475H97.9836C95.3607 150.279 93.5574 140.934 93.2295 131.098ZM122.902 166.672V188.311C114.377 186.344 106.672 178.312 101.262 166.672H122.902ZM131.098 188.311V166.672H152.41C147 178.148 139.459 186.18 131.098 188.311ZM131.098 158.475V131.098H160.443C160.115 140.934 158.311 150.279 155.689 158.475H131.098ZM168.639 131.098H188.639C187.984 141.098 185.033 150.443 180.115 158.475H164.377C166.836 150.115 168.311 140.934 168.639 131.098ZM174.377 87.3279H161.59C158.967 80.7705 155.689 75.0328 151.754 70.2787C160.607 74.2131 168.311 80.1148 174.377 87.3279ZM101.754 70.6066C97.9836 75.1968 94.7049 80.9344 92.082 87.3279H79.623C85.5246 80.1148 93.0656 74.3771 101.754 70.6066ZM79.623 166.672H92.082C94.7049 173.066 97.9836 178.803 101.754 183.393C93.0656 179.459 85.5246 173.721 79.623 166.672ZM151.754 183.557C155.525 178.967 158.803 173.23 161.59 166.672H174.377C168.311 173.885 160.607 179.787 151.754 183.557Z" fill="white"/>
</g>
<defs>
<linearGradient id="paint0_linear_110_357" x1="-71.2323" y1="2" x2="-71.2323" y2="252" gradientUnits="userSpaceOnUse">
<stop offset="0.005" stop-color="#1A1F71" stop-opacity="0.97"/>
<stop offset="0.519231" stop-color="#20B2AA" stop-opacity="0.97"/>
<stop offset="1" stop-color="#1A1F71" stop-opacity="0.97"/>
</linearGradient>
<clipPath id="clip0_110_357">
<rect width="254" height="254" fill="white"/>
</clipPath>
</defs>
</svg>
